<?xml version="1.0" encoding="utf-8"?>
<!-- Generator: Adobe Illustrator 26.5.0, SVG Export Plug-In . SVG Version: 6.00 Build 0)  -->
<svg version="1.1" id="Layer_1" xmlns="http://www.w3.org/2000/svg" xmlns:xlink="http://www.w3.org/1999/xlink" x="0px" y="0px"
	 viewBox="0 0 209.32 210.07" style="enable-background:new 0 0 209.32 210.07;" xml:space="preserve">
<style type="text/css">
	.st0{fill:#3159A1;}
	.st1{fill:#224073;}
	.st2{fill:#972831;}
	.st3{fill:#DEE7EE;}
	.st4{fill:#2B2C35;}
	.st5{fill:#9592AA;}
	.st6{fill:#C4CBE0;}
	.st7{fill:url(#SVGID_1_);}
	.st8{fill:url(#SVGID_00000165921684972849838190000013291738109621834935_);}
	.st9{fill:url(#SVGID_00000030446652847919564040000003147178185860840333_);}
	.st10{fill:#E5ACBF;}
</style>
<path class="st0" d="M142.87,210.07H66.44C29.75,210.07,0,180.32,0,143.63V66.44C0,29.75,29.75,0,66.44,0h76.43
	c36.7,0,66.44,29.75,66.44,66.44v77.19C209.32,180.32,179.57,210.07,142.87,210.07z"/>
<path class="st1" d="M33.9,175.16l115.22,34.91c26.89-3.96,55.34-25.04,59.95-60.81l0.14-86.45l-53.57-32.28L38.08,101.84
	L33.9,175.16z"/>
<path class="st2" d="M186.7,104.68c-0.29-1.94-1.18-3.67-1.66-5.54c-2.02-5.38-3.98-10.8-6.09-16.14c-1.6-4.06-4.13-7.7-5.73-11.67
	c-1.93-4.78-3.49-9.78-5.38-14.61c-3.04-7.76-6.27-15.44-10.14-22.8c-0.1-0.43-0.25-0.83-0.64-1.07c-0.08-0.1-0.16-0.2-0.24-0.29
	c0.03-0.49-0.2-0.85-0.52-1.15c-0.21-0.29-0.43-0.57-0.64-0.86l0,0c-1.17-2.01-6.86-3.06-6.86-3.06s0,0,0,0
	c-1.41-0.42-2.86-0.66-4.33-0.76c-12.84-0.88-28.85-1.26-41.69-1.24v-0.06c-12.84-0.03-28.86,0.35-41.7,1.24
	c-1.47,0.1-2.92,0.34-4.33,0.76c0,0,0,0,0,0s-5.69,1.05-6.86,3.06l0,0c-0.21,0.29-0.43,0.57-0.64,0.86
	c-0.33,0.31-0.55,0.67-0.52,1.15c-0.08,0.1-0.16,0.2-0.24,0.29c-0.39,0.24-0.54,0.64-0.64,1.07c-3.87,7.36-7.1,15.04-10.14,22.8
	c-1.89,4.83-3.45,9.83-5.38,14.61c-1.6,3.98-4.13,7.62-5.73,11.67c-2.11,5.35-4.07,10.76-6.09,16.14c-0.48,1.87-1.37,3.6-1.66,5.54
	c-0.38,2.59-0.33,5.19-0.3,7.79c0.01,0.6,0,1.23,0.56,1.63c1.06,2.05,1.67,10.19,3.98,9.45l5.15,0.05l15.4-0.33l59.14,0.34v0.06
	l59.16-0.34l15.4,0.33l5.15-0.05c2.31,0.74,2.92-7.4,3.98-9.45c0.56-0.4,0.55-1.03,0.56-1.63
	C187.03,109.87,187.08,107.27,186.7,104.68z M38.5,97.45c0,0,0.01,0,0.01,0.01C38.41,97.47,38.46,97.42,38.5,97.45z M38.57,97.45
	c0.01-0.01,0.02-0.01,0.05-0.01C38.6,97.45,38.58,97.45,38.57,97.45z M166.91,97.51c0.03,0,0.04,0,0.05,0.01
	C166.94,97.51,166.92,97.51,166.91,97.51z M167.01,97.52c0,0,0.01,0,0.01-0.01C167.06,97.49,167.11,97.54,167.01,97.52z"/>
<path class="st3" d="M176.02,96.19"/>
<path class="st4" d="M181.27,103.07c0,0,0.36-2.07-2.76-2.29c-3.84-0.27-17.14-0.3-17.14-0.3l-117.2-0.06c0,0-13.31,0.03-17.14,0.3
	c-3.13,0.22-2.76,2.29-2.76,2.29s-0.41,8.78-0.36,11.26c0.05,2.48,2.25,2.96,2.25,2.96l153.23,0.06c0,0,2.2-0.48,2.25-2.96
	C181.68,111.85,181.27,103.07,181.27,103.07z"/>
<path class="st4" d="M186.18,126.56c-0.91-1.72-4.18-0.09-3.72-3.01c0,0,0,0,0,0c-1.05-0.84-75.78,0.12-79.69,0.06
	c0-0.02,0-0.04,0-0.06c-3.79,0.06-78.65-0.9-79.7-0.06c0,0,0,0,0,0c0.45,2.91-2.81,1.29-3.72,3.01c-1.31,1.73-1.16,10.65-1.12,12.53
	c0,0,0.01,15.05,0.37,21.9c0.27,4.01,0.36,8.15,2.87,11.42c2.42,4.24,10.7,2.77,13.5,2.48c1.76-0.29,3.46-3.95,3.99-4.84
	c0.89-1.49,1.36-3.25,1.04-6.06c-0.41-1.91,0.63-1.92,3.04-1.44c13.54,1.7,28.84,0.43,59.73,0.81c0,0.02,0,0.04,0,0.06
	c30.9-0.38,46.2,0.9,59.74-0.81c2.41-0.48,3.45-0.46,3.04,1.44c-0.32,2.81,0.15,4.57,1.04,6.06c0.53,0.89,2.24,4.55,3.99,4.84
	c2.8,0.29,11.08,1.76,13.5-2.48c2.51-3.27,2.59-7.41,2.87-11.42c0.36-6.85,0.37-21.9,0.37-21.9
	C187.35,137.21,187.49,128.29,186.18,126.56z"/>
<g id="Headlight_00000034789206425828749840000003741775502351906225_">
	<g>
		<path class="st5" d="M168.05,99.56c-2.84-0.15-5.32,1-7.26,3.22c-4.16,4.75-3.99,9.91-0.51,14.76c1.77,2.48,4.82,3.38,7.83,3.42
			c5.52,0.07,10.2-4.92,10.2-10.73C177.47,103.48,174.88,99.93,168.05,99.56z"/>
		<path class="st5" d="M37.47,99.5c-6.83,0.37-9.42,3.92-10.26,10.67c0,5.82,4.68,10.8,10.2,10.73c3.02-0.04,6.06-0.94,7.83-3.42
			c3.48-4.86,3.65-10.01-0.51-14.76C42.79,100.5,40.31,99.34,37.47,99.5z"/>
	</g>
	<g>
		<path class="st6" d="M167.45,101.91c-0.22-0.36-0.73-0.71-1.14-0.74c-1.95-0.15-2.72,1.41-3.81,2.24
			c0.24,1.04,0.22,1.63,0.44,1.77c2.33,1.44,2.55-1.69,4.05-2.13C167.48,102.9,167.68,102.3,167.45,101.91z"/>
		<path class="st6" d="M166.15,110.1c-0.07,0.39-0.19,0.81-0.64,0.66c-0.19-0.07-0.28-0.51-0.4-0.79c-0.31-0.72,0.95-1.9-0.58-2.27
			c-1.49-0.36-0.79,1.24-1.38,1.72c-0.72,0.58-0.69,1.51-0.27,2.13c0.46,0.67,1.34,1.03,2.15,0.71c0.8-0.32,1.43-0.94,1.42-2.08
			c-0.03-0.12-0.07-0.34-0.12-0.56C166.26,109.78,166.18,109.94,166.15,110.1z"/>
		<path class="st6" d="M39.22,101.11c-0.41,0.03-0.92,0.37-1.14,0.74c-0.23,0.39-0.04,0.99,0.46,1.14c1.5,0.45,1.72,3.57,4.05,2.13
			c0.22-0.14,0.2-0.73,0.44-1.77C41.94,102.52,41.17,100.96,39.22,101.11z"/>
		<path class="st6" d="M42.38,109.35c-0.59-0.48,0.11-2.08-1.38-1.72c-1.54,0.37-0.27,1.55-0.58,2.27c-0.12,0.28-0.21,0.73-0.4,0.79
			c-0.45,0.15-0.57-0.26-0.64-0.66c-0.03-0.17-0.11-0.32-0.17-0.49c-0.05,0.22-0.09,0.44-0.12,0.56c-0.01,1.14,0.62,1.77,1.42,2.08
			c0.81,0.32,1.69-0.04,2.15-0.71C43.07,110.87,43.1,109.94,42.38,109.35z"/>
	</g>
</g>
<g>
	<path class="st6" d="M164.47,67.82c-2.15-8.17-6.55-15.35-9.6-23.14c-0.07-0.19-0.37-0.28-0.57-0.41
		c-0.01,0.31-0.11,0.66-0.01,0.92c2.11,5.21,3.17,10.75,4.49,16.2c0.27,1.13,0.73,2.3-0.24,3.43c-1.31,1.53-0.42,3.4-0.38,5.1
		c0,0.17,1.75,0.29,2.82,0.46C162.11,69.44,165.49,71.69,164.47,67.82z"/>
	<path class="st6" d="M50.66,44.62c-3.05,7.79-7.45,14.97-9.6,23.14c-1.02,3.87,2.36,1.62,3.49,2.55c1.07-0.17,2.81-0.29,2.82-0.46
		c0.04-1.7,0.93-3.56-0.38-5.09c-0.97-1.13-0.51-2.3-0.24-3.43c1.32-5.45,2.38-10.99,4.49-16.2c0.1-0.26,0-0.61-0.01-0.92
		C51.03,44.34,50.73,44.43,50.66,44.62z"/>
</g>
<path class="st3" d="M29.51,96.13"/>
<linearGradient id="SVGID_1_" gradientUnits="userSpaceOnUse" x1="102.7623" y1="75.6298" x2="102.7623" y2="98.5162">
	<stop  offset="0" style="stop-color:#BA3E57"/>
	<stop  offset="0.0581" style="stop-color:#CD5C6D"/>
	<stop  offset="0.1892" style="stop-color:#D8879A"/>
	<stop  offset="0.4344" style="stop-color:#DE7690"/>
	<stop  offset="0.5384" style="stop-color:#E7DDE4"/>
	<stop  offset="0.8735" style="stop-color:#E39CAE"/>
	<stop  offset="0.9075" style="stop-color:#D06476"/>
	<stop  offset="0.9767" style="stop-color:#DE8B9C"/>
	<stop  offset="1" style="stop-color:#A8292E"/>
</linearGradient>
<path class="st7" d="M180.4,97.04c-0.16-0.85-0.33-1.71-0.49-2.56c-0.27-1.18-0.78-2.19-1.67-2.87c-0.06-0.22-0.16-0.45-0.3-0.71
	c-0.09-0.11-0.14-0.23-0.2-0.35c0,0-1.02-1.65-1.02-1.65c-1.91-2.2-14.68-2.93-24-3.22c1.16-0.35,2.25-0.81,3.24-1.46
	c-0.73-2.09,1.79-2.8,3.03-3.86c1.62-1.39,2.7-3.04,4.3-4.4c-3.57-0.02-7.15-0.03-10.72-0.04c-0.19,0-0.52,0.04-0.54,0.11
	c-0.97,3.54-4.93,1.78-7.45,2.53c-1.87,0.22-1.99,2.45-4.16,2.22c-6.59-0.47-12.96,1.1-19.49,1.27c-16.25,0.67-39.82-0.42-55.8-1.34
	c-1.17,0.08-2.02-0.53-2.48-1.27c-2.35-2.75-7.9,0.88-9.13-3.48c-3.68-0.29-7.54,0.02-11.26-0.07c1.6,1.36,2.69,3.02,4.3,4.4
	c1.24,1.06,3.76,1.78,3.03,3.86c0.99,0.65,2.08,1.1,3.24,1.46c-9.31,0.28-22.09,1.01-24,3.22c0,0-1.02,1.65-1.02,1.65
	c-0.07,0.12-0.12,0.24-0.2,0.35c-0.14,0.26-0.24,0.49-0.3,0.71c-0.9,0.68-1.41,1.69-1.67,2.87c-0.16,0.85-0.33,1.7-0.49,2.56
	c1.71,0.58,2.9-0.83,4.41-1.18c-0.83,1.84-0.51,2.81,1.55,2.75c23.89-0.51,119.46-0.44,143.36,0.07c2.07,0.06,2.39-0.91,1.54-2.76
	C177.49,96.21,178.69,97.62,180.4,97.04z"/>
<path id="Front_00000083046642866652414170000002930277018998149036_" class="st2" d="M176.82,141.05
	c-0.38-1.25-2.14-1.87-2.51-1.87c-5.27,0.07-10.55,0.19-15.82,0.26c-8.17,0.11-47.51,0.77-55.72,0.87c0-0.04,0-0.06,0-0.06
	c-8.17-0.09-47.56-0.75-55.73-0.87c-5.27-0.07-10.55-0.19-15.82-0.26c-0.37,0-2.12,0.62-2.51,1.87c-0.17,2.84,4.39,7.51,6.96,7.95
	c8.97,1.52,18.01,1.81,27.06,2.07c2.98,0.09,36.98-0.29,40.03-0.27c0,0.04,0,0.06,0,0.06c2.98-0.02,37.06,0.36,40.05,0.27
	c9.05-0.26,18.08-0.55,27.06-2.07C172.43,148.57,176.99,143.9,176.82,141.05z"/>
<g id="Blinkers_00000084529836460716253460000003372582406249318590_">
	
		<radialGradient id="SVGID_00000062183210860783491840000014578693027168562840_" cx="157.6696" cy="134.884" r="8.2955" gradientTransform="matrix(1 0 0 1.0527 0 -10.8384)" gradientUnits="userSpaceOnUse">
		<stop  offset="0.4098" style="stop-color:#FFAD53"/>
		<stop  offset="0.5272" style="stop-color:#E79941"/>
		<stop  offset="0.6911" style="stop-color:#CC822D"/>
		<stop  offset="0.7871" style="stop-color:#C27925"/>
		<stop  offset="0.7923" style="stop-color:#BE7625"/>
		<stop  offset="0.8377" style="stop-color:#A46029"/>
		<stop  offset="0.8842" style="stop-color:#91502C"/>
		<stop  offset="0.9319" style="stop-color:#86472D"/>
		<stop  offset="0.9827" style="stop-color:#82442E"/>
	</radialGradient>
	<path style="fill:url(#SVGID_00000062183210860783491840000014578693027168562840_);" d="M162.36,128.75
		c-1.52,0.24-3.11,0.04-4.66,0.04c-2.05,0-4.09-0.04-6.14,0.01c-2.48,0.06-1.34,2.1-1.56,3.35c-0.23,1.31,0.66,1.39,1.59,1.39
		c3.63-0.01,7.27,0.06,10.9-0.02c1.14-0.02,2.87,0.68,2.93-1.54C165.47,129.91,164.94,128.34,162.36,128.75z"/>
	
		<radialGradient id="SVGID_00000151512116410182270830000007797471076378585526_" cx="47.8551" cy="134.8237" r="8.5012" gradientTransform="matrix(1 0 0 1.0527 0 -10.8384)" gradientUnits="userSpaceOnUse">
		<stop  offset="0.4098" style="stop-color:#FFAD53"/>
		<stop  offset="0.5272" style="stop-color:#E79941"/>
		<stop  offset="0.6911" style="stop-color:#CC822D"/>
		<stop  offset="0.7871" style="stop-color:#C27925"/>
		<stop  offset="0.7923" style="stop-color:#BE7625"/>
		<stop  offset="0.8377" style="stop-color:#A46029"/>
		<stop  offset="0.8842" style="stop-color:#91502C"/>
		<stop  offset="0.9319" style="stop-color:#86472D"/>
		<stop  offset="0.9827" style="stop-color:#82442E"/>
	</radialGradient>
	<path style="fill:url(#SVGID_00000151512116410182270830000007797471076378585526_);" d="M43.17,128.69
		c1.52,0.24,3.11,0.04,4.66,0.04c2.05,0,4.09-0.04,6.14,0.01c2.48,0.06,1.34,2.1,1.56,3.35c0.23,1.31-0.66,1.39-1.59,1.39
		c-3.63-0.01-7.27,0.06-10.9-0.02c-1.14-0.02-2.87,0.68-2.93-1.54C40.06,129.84,40.58,128.28,43.17,128.69z"/>
</g>
<g id="Fenders_00000175324108519461178880000003395962876078839979_">
	<path class="st5" d="M22.93,123.52c0,0-0.05,0.01-0.08,0.01c-0.01,0.01-1.15-0.48-1.22-1.44c-0.01-0.11-0.01-0.22-0.01-0.33
		c0-0.2,0-0.4-0.01-0.6c0,0,0,0,0,0v0l-1.08-9.67c-0.28-1.5,0.28-2.97,0.17-4.45c-0.18-2.42,0.94-4.37,1.91-6.39c0,0,0,0,0,0
		c-1.67,0.96-2.49,2.72-3.62,4.19c-0.07,0.19-0.16,0.38-0.23,0.57c-0.37,1.59-0.74,3.18-1.11,4.77c0,0,0,0,0,0c0,0,0,0,0,0
		c-0.05,0.34-0.1,0.68-0.14,1.02c-0.01,0.14-0.02,0.27-0.06,0.4c0,0,0,0,0,0l0,0v0c0.04,1.75-0.2,5.34-0.2,6.81l0,0l0,0
		c0,0.37,0.02,0.61,0.06,0.64l0.55,6.05c-0.02,0.1,0.07,0.45,0.17,0.8l0,0h0c0.09,0.34,0.19,0.67,0.19,0.77c0,0-0.11,2.38-0.08,2.58
		c0,0,0,0,0,0c0,0,0,0,0,0c0.1-0.02,0.19-0.04,0.29-0.06c0.15-0.4,0.11-0.94,0.52-1.17c0.06-0.12,0.12-0.24,0.18-0.35
		c-0.16-0.2-0.25-0.42-0.23-0.64c0.74-1.05,1.78-1.7,3.55-1.48C23.1,125.64,22.92,123.54,22.93,123.52z"/>
	<path class="st5" d="M188.27,118.48c0-1.47-0.24-5.05-0.2-6.81l0,0h0c0,0,0,0,0,0c-0.03-0.13-0.05-0.27-0.06-0.4
		c-0.05-0.34-0.1-0.68-0.14-1.02c0,0,0,0,0,0c0,0,0,0,0,0c-0.37-1.59-0.74-3.18-1.11-4.77c-0.07-0.19-0.16-0.38-0.23-0.57
		c-1.13-1.47-1.95-3.23-3.62-4.19c0,0,0,0,0,0c0.96,2.02,2.09,3.98,1.91,6.39c-0.11,1.48,0.45,2.95,0.17,4.45l-1.08,9.67l0,0
		c0,0,0,0,0,0c-0.01,0.2-0.01,0.4-0.01,0.6c0,0.11,0,0.22-0.01,0.33c-0.07,0.96-1.2,1.46-1.22,1.44c-0.03,0-0.08-0.01-0.08-0.01
		c0,0.02-0.17,2.12,0.48,2.03c1.77-0.22,2.8,0.43,3.55,1.48c0.01,0.23-0.07,0.44-0.23,0.64c0.06,0.11,0.12,0.23,0.18,0.35
		c0.42,0.22,0.37,0.76,0.52,1.17c0.1,0.02,0.19,0.04,0.29,0.06c0,0,0,0,0,0c0,0,0,0,0,0c0.03-0.2-0.08-2.58-0.08-2.58
		c0-0.1,0.1-0.43,0.19-0.77h0l0,0c0.1-0.35,0.19-0.7,0.17-0.8l0.55-6.05C188.26,119.08,188.27,118.85,188.27,118.48L188.27,118.48
		L188.27,118.48z"/>
	<path class="st4" d="M188.29,117.19c-0.45-2.31-1.12-4.53-2.71-6.34c-0.01-0.01-0.02-0.02-0.04-0.03c-0.13-0.13-0.31-0.2-0.47-0.31
		c0,0,0,0,0,0c-0.36,3.35-0.72,6.69-1.08,10.04c0.11,0.1,0.21,0.22,0.25,0.36c0.07,0.1,0.13,0.19,0.2,0.29
		c0.7,1.01,1.41,2.02,2.1,3.03c0.31,0.45,0.58,0.94,1.23,0.79c0,0,0,0,0,0c0.07-0.66,0.48-3.71,0.48-3.71
		c-0.01-0.09,0.02-0.17,0.08-0.23C188.38,120.7,188.29,117.49,188.29,117.19z"/>
	<path class="st4" d="M17.23,117.13c0.45-2.31,1.12-4.53,2.71-6.34c0.01-0.01,0.02-0.02,0.04-0.03c0.13-0.13,0.31-0.2,0.47-0.31
		c0,0,0,0,0,0c0.36,3.35,0.72,6.69,1.08,10.04c-0.11,0.1-0.21,0.22-0.25,0.36c-0.07,0.1-0.13,0.19-0.2,0.29
		c-0.7,1.01-1.41,2.02-2.1,3.03c-0.31,0.45-0.58,0.94-1.23,0.79c0,0,0,0,0,0c-0.07-0.66-0.48-3.71-0.48-3.71
		c0.01-0.09-0.02-0.17-0.08-0.23C17.15,120.63,17.23,117.43,17.23,117.13z"/>
</g>
<g id="Windhield_00000093868610653821962660000011810649387056290723_">
	<path id="Glass_00000158009723264665333730000008404464781569119411_" class="st5" d="M169.11,70.16
		c-3.69-12.65-9.2-24.5-14.66-36.38c-0.49-1.08-1.13-2.17-2.5-2.27c-4.02-1.89-8.35-1.91-12.62-2.36
		c-12.17-0.92-60.96-0.98-73.13-0.06c-4.27,0.45-8.6,0.46-12.62,2.36c-1.37,0.1-2.01,1.19-2.5,2.27
		C45.61,45.6,40.11,57.44,36.41,70.1c-0.82,2.3,0.25,3.62,2.3,4.41c0,0,128.1,0.06,128.1,0.06
		C168.85,73.78,169.94,72.47,169.11,70.16z M43.13,72.27c-0.13,0-0.26,0-0.39,0c0.16,0,0.32-0.01,0.48,0
		C43.19,72.27,43.16,72.27,43.13,72.27z M44.95,71.29c-0.09,0-0.18,0-0.27,0c0.11,0,0.22,0,0.33,0
		C44.99,71.29,44.97,71.29,44.95,71.29z M160.57,71.35c-0.02,0-0.04,0-0.06,0c0.11,0,0.22,0,0.33,0
		C160.75,71.35,160.66,71.35,160.57,71.35z M162.4,72.33c-0.03,0-0.06,0-0.09,0c0.16-0.01,0.32,0,0.48,0
		C162.66,72.33,162.53,72.33,162.4,72.33z"/>
	<g id="Interior_00000083059342254238771950000007447162056818112947_">
		<path class="st3" d="M102.77,37.12"/>
		<path class="st3" d="M137.6,44.76c-0.26-2.04-0.36-4.12-0.89-6.08c-0.45-1.65-2.15-1.33-3.33-1.32
			c-9.64,0.87-18.99-0.9-28.57-0.19c4.4,0.99,9.15-1.42,7.87,5.28c-0.07,0.94-0.99,0.95-1.7,0.96c-2.74,0.01-5.48,0.01-8.21,0.02
			c-2.74-0.01-5.48-0.01-8.21-0.02c-0.71,0-1.63-0.02-1.7-0.96c-1.27-6.7,3.47-4.29,7.87-5.28c-6.09-0.46-12.18,0.02-18.27,0.42
			c-3.29,0.27-6.86-0.21-10.3-0.23c-1.19-0.01-2.89-0.33-3.33,1.32c-0.53,1.96-0.64,4.05-0.89,6.08c-0.06,0.45-0.1,0.95,0.65,0.87
			c3.86-0.02,9.61-1.93,12.96,0.21c4.56,3.65,3.94,8.83,3.55,13.87c-0.11,1.37,0.07,3.13-1.74,3.74c-0.87,1.77,6.14,0.19,8.37,0.45
			c7.34-1.42,14.77-1.42,22.11,0c0.64,0.1,9.19,1.33,8.37-0.45c-1.81-0.62-1.63-2.38-1.74-3.74c-1.11-6.35,0.45-16.34,8.82-14.74
			c2.57,0.14,5.13,0.41,7.69,0.66C137.7,45.71,137.66,45.21,137.6,44.76z"/>
	</g>
	<g id="Wipers_00000173123949600663430310000001401004731312610237_">
		<path class="st4" d="M159.79,71.72c-2.52-0.12-27.94-2.28-32.36-2.34c-2.57-0.03-7.61,0.5-7.61,0.5
			c-0.09,0.04-0.27,0.04-0.27,0.04c-0.3,0.28-0.61,0.56-0.91,0.85c-3.85-0.17-10.2-0.52-11.49-0.52l0.32,1.35
			c3.22-0.11,15.22,0.63,18.44,0.97c0.38,0.04,7.29,1.3,7.3,1.22c0.12-0.57-0.26-1.52-0.4-2.07c-0.05-0.19-2.61-0.28-3.02-0.26
			c-1.12,0.05-4.43-0.33-6.65-0.51c2.27-0.25,4.79-0.52,6.32-0.4c4.02,0.31,19.56,2.04,22.54,1.99c0.55,0.15,1.11,0.28,1.66,0.43
			c-0.39,1.22,3.28-0.54,5.82,1.56c0.37,0.31,1.24,0.12,1.55-0.66C161.05,73.73,160.77,71.76,159.79,71.72z"/>
		<path class="st4" d="M85.97,69.85c0,0-0.18,0-0.27-0.04c0,0-5.04-0.54-7.61-0.5c-4.42,0.06-29.84,2.22-32.36,2.34
			c-0.98,0.05-1.26,2.01-1.24,2.15c0.3,0.79,1.17,0.97,1.55,0.66c2.55-2.09,6.21-0.34,5.82-1.56c0.55-0.15,1.11-0.29,1.66-0.43
			c2.98,0.05,18.52-1.68,22.54-1.99c1.53-0.12,4.04,0.15,6.32,0.4c-2.22,0.18-5.53,0.56-6.65,0.51c-0.41-0.02-2.97,0.07-3.02,0.26
			c-0.14,0.55-0.52,1.49-0.4,2.07c0.02,0.08,6.92-1.18,7.3-1.22c3.22-0.34,15.22-1.08,18.44-0.97l0.32-1.35
			c-1.29,0-7.64,0.35-11.49,0.52C86.58,70.42,86.27,70.14,85.97,69.85z"/>
	</g>
</g>
<g id="HoodGlare_00000086692734591280927760000009844687888273307524_">
	<path class="st10" d="M164.91,75.97c-0.47-0.02-0.94-0.01-1.42,0c0.03,0.05,0.05,0.09,0.05,0.14c-0.09-0.04-0.18-0.08-0.26-0.14
		c-1.6,1.36-2.69,3.02-4.3,4.4c-1.24,1.06-3.76,1.78-3.03,3.86c0.12-0.11,0.24-0.22,0.38-0.31c-0.01,0.07-0.02,0.14-0.02,0.21
		c3.85-1.09,6.79-3.29,9.98-5.17c1.1-0.65,1.81-1.7,2.7-2.56C167.72,75.73,166.28,76.04,164.91,75.97z"/>
	<path class="st10" d="M46.55,80.31c-1.62-1.39-2.7-3.04-4.3-4.4c-0.09,0.05-0.17,0.1-0.26,0.14C41.98,76,42,75.95,42.03,75.9
		c-0.47-0.01-0.95-0.02-1.42,0c-1.37,0.07-2.81-0.24-4.07,0.44c0.89,0.87,1.6,1.92,2.7,2.56c3.19,1.87,6.12,4.08,9.98,5.17
		c-0.01-0.07-0.01-0.14-0.02-0.21c0.13,0.1,0.26,0.2,0.38,0.31C50.3,82.09,47.79,81.38,46.55,80.31z"/>
	<path class="st10" d="M172.84,140.73C172.84,140.73,172.84,140.73,172.84,140.73c-1.52,2.26-3.05,4.51-4.56,6.77
		c-0.18,0.27-0.33,0.56-0.5,0.84c0.37-0.14,0.82-0.21,1.09-0.45c2.01-1.77,3.98-3.57,5.97-5.36
		C176.45,140.11,174.69,139.95,172.84,140.73z"/>
	<path class="st10" d="M32.69,140.66C32.69,140.66,32.69,140.66,32.69,140.66c1.52,2.26,3.05,4.51,4.56,6.77
		c0.18,0.27,0.33,0.56,0.5,0.84c-0.37-0.14-0.82-0.21-1.09-0.45c-2.01-1.77-3.98-3.57-5.97-5.36
		C29.08,140.04,30.83,139.89,32.69,140.66z"/>
</g>
</svg>
