<?xml version="1.0" encoding="utf-8"?>
<!-- Generator: Adobe Illustrator 26.5.0, SVG Export Plug-In . SVG Version: 6.00 Build 0)  -->
<svg version="1.1" id="Layer_1" xmlns="http://www.w3.org/2000/svg" xmlns:xlink="http://www.w3.org/1999/xlink" x="0px" y="0px"
	 viewBox="0 0 140 125" style="enable-background:new 0 0 140 125;" xml:space="preserve">
<style type="text/css">
	.st0{fill:url(#SVGID_1_);}
	.st1{fill:#F7931E;}
	.st2{fill:#FFFFFF;}
</style>
<radialGradient id="SVGID_1_" cx="70" cy="61.5" r="66.356" gradientUnits="userSpaceOnUse">
	<stop  offset="0" style="stop-color:#CFCFCF"/>
	<stop  offset="0.8428" style="stop-color:#EEEEEE"/>
	<stop  offset="1" style="stop-color:#FFFFFF"/>
</radialGradient>
<path class="st0" d="M121.2,124H18.8C8.42,124,0,115.58,0,105.2V17.8C0,7.42,8.42-1,18.8-1h102.4C131.58-1,140,7.42,140,17.8v87.4
	C140,115.58,131.58,124,121.2,124z"/>
<g id="otmn7Y.tif">
	<g>
		<path class="st1" d="M24,69c-1.69-1.51-11.05,5.69-11.31,4.54c-2.38-10.5-5.55-24.97-6.43-35.62
			C5.2,25.16,12.06,16.04,23.77,10.93c12.49-5.46,25.28-5.05,38.12-1.36c5.92,1.7,11.76,9.65,17.65,11.44
			c9.5,2.87,19.08,4.52,29.44,1.1C107.46,24.59,94.61,31.4,93,34c12.47-0.72,34.88-8.35,43.04-17.97
			c-1.28,10.33-5.06,19.42-12.91,26.98c2.15-1,4.3-2,7.14-3.33c-0.63,2.18-0.66,4.25-1.68,5.49c-7.87,9.6-13,20.43-15.29,32.62
			c-0.02,0.09-0.93,0.01-1.58,0.01c-1.07-4.25-7.22-8.68-8.71-12.81c-2.45-6.77-0.08-14.34-7.26-13.48
			c-7.25,0.87-14.54,2.49-21.52-1.36c-0.3,0.34-0.6,0.67-0.9,1.01c2.58,2.6,5.17,5.2,8,8.04c-5.07,1.45-9.87-0.13-14.64-1.91
			c-5.6-2.09-11.08-4.68-16.84-6.13c-3.92-0.99-8.29-0.85-12.38-0.44C23.49,52.15,26.65,52.74,24,69z"/>
	</g>
</g>
<path d="M112,86.33c0-1.32,0-2.63,0-3.95c-1.78-0.45-3.54-1.17-5.33-1.29H64.95h-0.89H22.33c-1.79,0.13-3.55,0.84-5.33,1.29
	c0,1.32,0,2.63,0,3.95c0.94,0.88,1.89,1.76,3.23,3.02c0,5.22,0.07,11.12-0.02,17.02c-0.05,3.64,0.9,6.44,3.08,8.52
	c3.83,2.37,4,2.47,13.5,3.08c3.6,0.04,7.18,0.07,10.75-0.09c2.72-0.13,5.46-0.77,8.13-1.48c3.52-0.94,5.59-4.21,5.68-8.71
	c0.08-3.94,0.02-7.88,0.03-11.83c0.01-3.52,0.56-4.36,3.12-4.42c2.56,0.07,3.11,0.9,3.12,4.42c0.01,3.94-0.05,7.89,0.03,11.83
	c0.09,4.5,2.16,7.77,5.68,8.71c2.68,0.72,5.41,1.36,8.13,1.48c3.57,0.17,7.14,0.13,10.75,0.09c9.5-0.6,9.67-0.71,13.5-3.08
	c2.17-2.08,3.13-4.88,3.08-8.52c-0.09-5.9-0.02-11.81-0.02-17.02C110.11,88.09,111.06,87.21,112,86.33z M55.89,104.93
	c-0.03,4.04-1.52,6.26-4.74,7.11c-6.95,1.83-13.91,1.74-20.86-0.07c-2.8-0.73-4.4-2.89-4.48-6.37c-0.12-4.82-0.11-9.64-0.02-14.46
	c0.07-3.5,1.47-5.12,4.4-5.2c3.55-0.1,7.1-0.02,10.64-0.03c3.46,0,6.92-0.06,10.38,0.01c3.33,0.07,4.64,1.75,4.67,5.85
	C55.92,96.16,55.92,100.55,55.89,104.93z M69.62,88.78c-1.59,0-3.14,0-4.67,0c-0.3,0-0.6,0-0.89,0c-1.54,0-3.08,0-4.67,0
	c0-1.74,0-3.43,0-5.39c1.55,0,3.1,0,4.67,0c0.3,0,0.59,0,0.89,0c1.57,0,3.13,0,4.67,0C69.62,85.35,69.62,87.04,69.62,88.78z
	 M103.19,105.6c-0.09,3.48-1.68,5.64-4.48,6.37c-6.94,1.81-13.9,1.89-20.86,0.07c-3.22-0.85-4.7-3.07-4.74-7.11
	c-0.04-4.38-0.03-8.76,0-13.15c0.03-4.1,1.34-5.78,4.67-5.85c3.46-0.07,6.92-0.02,10.38-0.01c3.55,0,7.1-0.07,10.64,0.03
	c2.93,0.08,4.33,1.7,4.4,5.2C103.3,95.96,103.31,100.78,103.19,105.6z"/>
<polygon class="st2" points="50.3,15.59 34.01,16.17 46.95,22.47 28.91,23.9 44.92,26.64 25.7,35.96 40.94,34.8 27.5,44.6 
	42.55,42.46 58.73,50.35 43.8,37.16 64.47,38.57 45.64,33.38 65.96,30.03 48.53,27.44 62.58,23.28 "/>
</svg>
